<?xml version="1.0"?>
<svg xmlns="http://www.w3.org/2000/svg" xmlns:xlink="http://www.w3.org/1999/xlink" version="1.1" id="Capa_1" x="0px" y="0px" viewBox="0 0 60 60" style="enable-background:new 0 0 60 60;" xml:space="preserve" width="512px" height="512px" class=""><g><g>
	<path d="M39,24.5H1c-0.552,0-1-0.448-1-1s0.448-1,1-1h38c0.552,0,1,0.448,1,1S39.552,24.5,39,24.5z" data-original="#8697CB" class="active-path" data-old_color="#000005" fill="#464D59"/>
	<path d="M13,36.5c-0.256,0-0.512-0.098-0.707-0.293l-12-12c-0.391-0.391-0.391-1.023,0-1.414   s1.023-0.391,1.414,0l12,12c0.391,0.391,0.391,1.023,0,1.414C13.512,36.402,13.256,36.5,13,36.5z" data-original="#8697CB" class="active-path" data-old_color="#000005" fill="#464D59"/>
	<path d="M1,24.5c-0.256,0-0.512-0.098-0.707-0.293c-0.391-0.391-0.391-1.023,0-1.414l12-12   c0.391-0.391,1.023-0.391,1.414,0s0.391,1.023,0,1.414l-12,12C1.512,24.402,1.256,24.5,1,24.5z" data-original="#8697CB" class="active-path" data-old_color="#000005" fill="#464D59"/>
	<path d="M1,24.5c-0.256,0-0.512-0.098-0.707-0.293c-0.391-0.391-0.391-1.023,0-1.414l12-12   c0.391-0.391,1.023-0.391,1.414,0s0.391,1.023,0,1.414l-12,12C1.512,24.402,1.256,24.5,1,24.5z" data-original="#8697CB" class="active-path" data-old_color="#000005" fill="#464D59"/>
	<path d="M59,37.5H21c-0.552,0-1-0.448-1-1s0.448-1,1-1h38c0.552,0,1,0.448,1,1S59.552,37.5,59,37.5z" data-original="#8697CB" class="active-path" data-old_color="#000005" fill="#464D59"/>
	<path d="M59,37.5c-0.256,0-0.512-0.098-0.707-0.293l-12-12c-0.391-0.391-0.391-1.023,0-1.414   s1.023-0.391,1.414,0l12,12c0.391,0.391,0.391,1.023,0,1.414C59.512,37.402,59.256,37.5,59,37.5z" data-original="#8697CB" class="active-path" data-old_color="#000005" fill="#464D59"/>
	<path d="M47,49.5c-0.256,0-0.512-0.098-0.707-0.293c-0.391-0.391-0.391-1.023,0-1.414l12-12   c0.391-0.391,1.023-0.391,1.414,0s0.391,1.023,0,1.414l-12,12C47.512,49.402,47.256,49.5,47,49.5z" data-original="#8697CB" class="active-path" data-old_color="#000005" fill="#464D59"/>
	<path d="M47,49.5c-0.256,0-0.512-0.098-0.707-0.293c-0.391-0.391-0.391-1.023,0-1.414l12-12   c0.391-0.391,1.023-0.391,1.414,0s0.391,1.023,0,1.414l-12,12C47.512,49.402,47.256,49.5,47,49.5z" data-original="#8697CB" class="active-path" data-old_color="#000005" fill="#464D59"/>
</g></g> </svg>
